<?xml version="1.0" encoding="iso-8859-1"?>
<!-- Generator: Adobe Illustrator 19.0.0, SVG Export Plug-In . SVG Version: 6.00 Build 0)  -->
<svg version="1.1" id="Layer_1" xmlns="http://www.w3.org/2000/svg" xmlns:xlink="http://www.w3.org/1999/xlink" x="0px" y="0px"
	 viewBox="0 0 512.004 512.004" style="enable-background:new 0 0 512.004 512.004;" xml:space="preserve">
<g id="XMLID_388_">
	<path id="XMLID_389_" d="M470.661,269.742c-3.595,0-7.125,0.507-10.528,1.45c-0.158-4.496-0.55-8.979-1.18-13.415h1.907
		c9.54,0,17.301-7.761,17.301-17.301V218.69c0-0.514-0.013-1.03-0.02-1.545c10.742-3.469,20.742-10.664,29.46-21.304
		c3.29-4.016,4.819-9.072,4.307-14.238c-0.514-5.166-3.008-9.822-7.022-13.112c-4.017-3.292-9.079-4.819-14.238-4.309
		c-5.168,0.513-9.826,3.009-13.112,7.023c-1.659,2.024-4.252,4.83-7.273,6.861c-7.141-17.651-18.779-33.07-33.971-44.874
		c-17.27-13.418-37.93-21.205-59.748-22.52c-4.135-0.265-7.688,2.9-7.938,7.035s2.9,7.688,7.035,7.938
		c18.786,1.132,36.576,7.838,51.446,19.392c10.72,8.33,19.383,18.746,25.551,30.588c-1.683-1.523-3.121-3.13-4.177-4.419
		c-12.702-15.504-28.126-23.699-44.605-23.699s-31.903,8.195-44.604,23.698c-2.896,3.534-8.635,9.463-14.537,9.463
		c-5.903,0-11.642-5.928-14.536-9.462c-12.702-15.504-28.126-23.699-44.605-23.699s-31.903,8.195-44.605,23.699
		c-2.895,3.534-8.633,9.462-14.535,9.462c-5.903,0-11.642-5.928-14.536-9.461c-3.172-3.872-6.513-7.288-9.998-10.234
		c14.524-13.143,31.552-22.774,50.724-28.647c0.263-0.08,0.521-0.175,0.773-0.284c10.119-4.363,20.881-6.575,31.987-6.575h56.531
		c4.143,0,7.5-3.357,7.5-7.5s-3.357-7.5-7.5-7.5h-56.531c-13.021,0-25.65,2.569-37.544,7.638
		c-22.421,6.93-42.208,18.506-58.886,34.418c-6.899-3.304-14.168-5.016-21.661-5.016c-16.48,0-31.905,8.195-44.604,23.698
		c-2.896,3.534-8.636,9.463-14.538,9.463s-11.641-5.928-14.535-9.462c-12.702-15.504-28.126-23.699-44.605-23.699
		s-31.903,8.195-44.605,23.699c-3.29,4.016-4.819,9.073-4.306,14.239s3.008,9.822,7.023,13.112
		c8.287,6.787,20.554,5.571,27.352-2.719c2.895-3.533,8.632-9.461,14.536-9.461c5.903,0,11.642,5.928,14.536,9.462
		c12.702,15.504,28.126,23.698,44.604,23.698s31.902-8.195,44.605-23.699c1.829-2.232,4.793-5.417,8.217-7.462
		c-14.48,25.146-23.241,55.083-25.264,86.392c-8.106-4.754-16.796-7.221-25.806-7.221c-16.479,0-31.903,8.195-44.605,23.7
		c-2.895,3.533-8.632,9.461-14.536,9.461c-2.778,0-5.818-1.313-9.036-3.904c-7.048-5.674-17.297-5.588-24.372,0.209
		c-4.563,3.737-7.166,9.268-7.142,15.171c0.024,5.84,2.634,11.279,7.16,14.925c10.131,8.157,21.677,12.47,33.39,12.47
		c16.48,0,31.904-8.194,44.605-23.699c2.895-3.533,8.632-9.461,14.536-9.461c5.903,0,11.642,5.929,14.536,9.462
		c4.599,5.613,9.558,10.253,14.791,13.908c4.309,21.746,12.133,42.032,22.702,58.78c1.427,2.261,3.861,3.498,6.35,3.498
		c1.368,0,2.754-0.374,3.996-1.158c3.503-2.211,4.55-6.843,2.34-10.346c-7.797-12.353-13.959-26.903-18.12-42.624
		c4.093,1.081,8.283,1.641,12.546,1.641c11.714,0,23.261-4.313,33.392-12.471c4.525-3.645,7.135-9.084,7.159-14.923
		c0.025-5.903-2.578-11.434-7.141-15.172c-7.076-5.796-17.326-5.883-24.373-0.209c-3.218,2.591-6.259,3.904-9.037,3.904
		c-5.903,0-11.641-5.928-14.535-9.462c-1.38-1.684-2.797-3.265-4.239-4.775c0.4-35.062,9.841-68.746,26.718-95.632
		c1.97,1.686,3.649,3.545,4.841,5c12.701,15.504,28.125,23.698,44.604,23.698s31.903-8.194,44.605-23.699
		c2.895-3.533,8.632-9.461,14.536-9.461s11.643,5.928,14.537,9.462c12.702,15.504,28.126,23.698,44.604,23.698
		c16.478,0,31.902-8.194,44.605-23.699c2.895-3.533,8.632-9.461,14.535-9.461c5.904,0,11.643,5.928,14.537,9.462
		c12.702,15.504,28.126,23.698,44.604,23.698c0.055,0,0.11-0.005,0.165-0.005v20.944c0,1.269-1.032,2.301-2.301,2.301h-96.759
		c-23.789,0-43.155,19.295-43.271,43.057c-0.127,2.397-1.022,21.886,2.067,43.162c4.612,31.771,15.624,51.126,32.728,57.53
		c1.021,0.383,1.438,1.156,1.595,1.582c0.17,0.46,0.283,1.168-0.141,1.931c-7.881,14.196-31.397,38.013-100.357,38.013
		c-23.452,0-44.107-7.702-61.391-22.893c-3.11-2.733-7.85-2.428-10.585,0.683c-2.734,3.111-2.429,7.851,0.683,10.585
		c20.103,17.667,44.089,26.625,71.293,26.625c2.848,0,5.635-0.054,8.394-0.132c2.369,8.075,3.578,16.392,3.578,24.771v26.136
		c0,4.143,3.357,7.5,7.5,7.5s7.5-3.357,7.5-7.5v-26.136c0-8.652-1.109-17.242-3.267-25.63c22.558-1.98,41.662-6.919,56.995-14.756
		c18.61-9.512,28.094-21.556,32.773-29.984c2.446-4.406,2.848-9.653,1.102-14.395c-1.777-4.826-5.572-8.634-10.411-10.445
		c-24.086-9.019-26.262-65.137-25.068-85.996c0.009-0.145,0.013-0.29,0.013-0.435c0-15.589,12.683-28.271,28.271-28.271h79.678
		c0.952,5.882,1.441,11.877,1.441,17.874v43.16c0,13.452-2.478,26.682-7.153,39.062c-6.112,0.012-18.649-1.274-32.84-10.232
		c-3.5-2.212-8.135-1.164-10.345,2.339c-2.211,3.503-1.164,8.135,2.339,10.345c13.194,8.329,25.347,11.277,34.063,12.185
		c-5.695,10.276-13.024,19.685-21.811,27.776c-3.047,2.806-3.242,7.551-0.436,10.598c1.479,1.605,3.495,2.419,5.519,2.419
		c1.816,0,3.638-0.655,5.079-1.983c13.017-11.988,23.228-26.517,30.154-42.47c0.342-0.576,0.605-1.198,0.784-1.851
		c2.812-6.768,5.032-13.782,6.633-20.959c4.281,1.559,8.816,2.385,13.455,2.385c21.692,0,39.341-17.648,39.341-39.341
		S492.353,269.742,470.661,269.742z M169.042,315.709c6.287,0,12.492-2.43,18.444-7.222c1.55-1.248,3.846-1.192,5.46,0.13
		c1.053,0.862,1.652,2.14,1.646,3.506c-0.003,0.765-0.211,2.21-1.567,3.302c-7.543,6.074-15.611,9.154-23.983,9.154
		c-11.832,0-23.244-6.295-33.001-18.204c-8.016-9.784-17.055-14.956-26.14-14.956c-9.087,0-18.126,5.172-26.14,14.956
		c-9.757,11.909-21.168,18.204-33.002,18.204c-8.371,0-16.439-3.079-23.981-9.152c-1.357-1.094-1.565-2.539-1.568-3.304
		c-0.006-1.366,0.595-2.644,1.647-3.506c1.614-1.322,3.91-1.376,5.459-0.129c5.95,4.791,12.155,7.221,18.443,7.221
		c9.087,0,18.126-5.172,26.14-14.956c9.757-11.91,21.169-18.205,33.002-18.205s23.245,6.295,33.002,18.204
		C150.917,310.537,159.956,315.709,169.042,315.709z M429.995,186.334c-8.016-9.784-17.055-14.956-26.141-14.956
		s-18.125,5.172-26.139,14.955c-9.758,11.91-21.17,18.205-33.002,18.205s-23.244-6.295-33.001-18.204
		c-8.016-9.784-17.055-14.956-26.141-14.956c-9.087,0-18.126,5.172-26.14,14.956c-9.757,11.909-21.168,18.204-33.001,18.204
		s-23.244-6.295-33.001-18.204c-8.016-9.784-17.055-14.956-26.14-14.956c-9.086,0-18.125,5.171-26.14,14.955
		c-9.758,11.91-21.17,18.205-33.002,18.205s-23.244-6.295-33.001-18.204c-8.016-9.784-17.055-14.956-26.14-14.956
		c-9.087,0-18.126,5.172-26.138,14.954c-1.551,1.894-4.353,2.172-6.244,0.622c-0.916-0.751-1.485-1.813-1.603-2.992
		c-0.117-1.18,0.231-2.333,0.982-3.25c9.757-11.91,21.169-18.205,33.002-18.205s23.245,6.295,33.002,18.205
		c8.016,9.784,17.054,14.956,26.139,14.956c9.084,0,18.123-5.172,26.141-14.956c9.756-11.91,21.167-18.205,33.001-18.205
		c11.833,0,23.245,6.296,33.001,18.206c8.017,9.784,17.056,14.955,26.14,14.955c9.085,0,18.123-5.172,26.139-14.956
		c9.757-11.91,21.169-18.205,33.002-18.205s23.245,6.295,33.002,18.205c8.016,9.784,17.055,14.956,26.14,14.956
		c9.083,0,18.122-5.172,26.14-14.956c9.756-11.91,21.168-18.205,33.001-18.205s23.245,6.295,33.002,18.205
		c8.016,9.784,17.055,14.956,26.14,14.956c9.084,0,18.123-5.172,26.143-14.959c0.749-0.915,1.811-1.483,2.988-1.601
		c1.183-0.115,2.333,0.232,3.25,0.984c1.893,1.55,2.17,4.35,0.62,6.241c-9.757,11.909-21.169,18.204-33.001,18.204
		S439.752,198.243,429.995,186.334z M470.661,333.424c-3.871,0-7.627-0.918-11.025-2.649c0.382-3.962,0.585-7.953,0.585-11.963
		v-31.723c3.24-1.542,6.792-2.346,10.44-2.346c13.422,0,24.341,10.919,24.341,24.341S484.083,333.424,470.661,333.424z"/>
	<path id="XMLID_394_" d="M392.511,421.534c-3.226-2.601-7.948-2.09-10.545,1.137c-6.297,7.818-9.765,17.602-9.765,27.549v43.606
		c0,4.143,3.357,7.5,7.5,7.5s7.5-3.357,7.5-7.5V450.22c0-6.536,2.289-12.979,6.446-18.141
		C396.246,428.854,395.737,424.132,392.511,421.534z"/>
	<path id="XMLID_395_" d="M425.431,277.242c0-4.143-3.357-7.5-7.5-7.5h-0.09c-4.143,0-7.455,3.357-7.455,7.5s3.402,7.5,7.545,7.5
		S425.431,281.385,425.431,277.242z"/>
	<path id="XMLID_396_" d="M295.52,367.184c4.143,0,7.5-3.357,7.5-7.5V237.489c0-4.143-3.357-7.5-7.5-7.5s-7.5,3.357-7.5,7.5v7.722
		c-24.345,3.635-43.079,24.678-43.079,50.02c0,25.34,18.734,46.384,43.079,50.019v14.433
		C288.02,363.826,291.378,367.184,295.52,367.184z M259.941,295.232c0-17.045,12.051-31.323,28.079-34.777v69.552
		C271.992,326.554,259.941,312.277,259.941,295.232z"/>
	<path id="XMLID_399_" d="M48.37,107.649c10.132,8.158,21.678,12.471,33.39,12.471c16.48,0,31.904-8.194,44.605-23.699
		c2.895-3.533,8.632-9.462,14.536-9.462c5.902,0,11.641,5.929,14.536,9.463c12.702,15.504,28.126,23.698,44.604,23.698
		c11.713,0,23.259-4.313,33.392-12.471c4.525-3.645,7.135-9.083,7.159-14.922c0.025-5.904-2.577-11.435-7.14-15.173
		c-0.001-0.001-0.001-0.001-0.001-0.001c-7.075-5.795-17.325-5.886-24.373-0.209c-3.218,2.591-6.259,3.904-9.037,3.904
		c-5.903,0-11.641-5.928-14.535-9.461c-12.702-15.504-28.126-23.699-44.605-23.699s-31.903,8.195-44.605,23.699
		c-2.895,3.533-8.632,9.461-14.536,9.461c-2.779,0-5.819-1.313-9.035-3.902c-7.049-5.677-17.299-5.589-24.373,0.207
		c-4.563,3.739-7.167,9.27-7.142,15.174C41.234,98.566,43.845,104.004,48.37,107.649z M57.857,89.156
		c1.614-1.322,3.91-1.378,5.459-0.128c5.949,4.791,12.154,7.22,18.443,7.22c9.086,0,18.125-5.172,26.14-14.955
		c9.757-11.91,21.169-18.205,33.002-18.205s23.245,6.295,33.002,18.205c8.015,9.783,17.054,14.955,26.139,14.955
		c6.287,0,12.492-2.43,18.443-7.221c1.553-1.249,3.848-1.192,5.461,0.129c1.053,0.862,1.652,2.141,1.646,3.507
		c-0.003,0.765-0.211,2.21-1.567,3.302c-7.543,6.074-15.612,9.154-23.983,9.154c-11.832,0-23.244-6.295-33.001-18.204
		c-8.017-9.785-17.056-14.957-26.14-14.957c-9.086,0-18.125,5.172-26.14,14.957c-9.757,11.909-21.168,18.204-33.002,18.204
		c-8.37,0-16.438-3.08-23.982-9.154c-1.356-1.093-1.564-2.538-1.567-3.302C56.204,91.297,56.804,90.019,57.857,89.156z"/>
	<path id="XMLID_402_" d="M245.826,53.243c7.075,5.797,17.326,5.885,24.373,0.21c3.218-2.591,6.259-3.904,9.037-3.904
		c5.904,0,11.642,5.928,14.536,9.461c12.702,15.504,28.126,23.699,44.605,23.699s31.903-8.195,44.605-23.699
		c2.895-3.533,8.632-9.461,14.536-9.461c2.778,0,5.818,1.313,9.035,3.903c7.044,5.676,17.295,5.588,24.374-0.209
		c4.563-3.738,7.165-9.269,7.14-15.173c-0.024-5.839-2.634-11.277-7.159-14.922c-10.132-8.158-21.678-12.471-33.39-12.471
		c-16.48,0-31.904,8.194-44.605,23.699c-2.895,3.533-8.632,9.462-14.536,9.462c-5.903,0-11.642-5.929-14.537-9.463
		c-12.702-15.504-28.126-23.698-44.604-23.698c-11.712,0-23.258,4.313-33.391,12.471c-4.525,3.645-7.135,9.083-7.159,14.922
		C238.661,43.975,241.263,49.505,245.826,53.243z M255.254,34.832c7.543-6.074,15.612-9.154,23.982-9.154
		c11.832,0,23.244,6.295,33.001,18.204c8.017,9.785,17.056,14.957,26.141,14.957c9.086,0,18.125-5.172,26.14-14.957
		c9.757-11.909,21.168-18.204,33.002-18.204c8.37,0,16.438,3.08,23.981,9.154c1.356,1.092,1.564,2.537,1.567,3.302
		c0.006,1.366-0.595,2.645-1.646,3.506c-1.615,1.323-3.911,1.377-5.46,0.131c-5.949-4.792-12.155-7.222-18.443-7.222
		c-9.086,0-18.125,5.172-26.14,14.955c-9.757,11.91-21.169,18.205-33.002,18.205s-23.245-6.295-33.002-18.205
		c-8.015-9.783-17.054-14.955-26.14-14.955c-6.287,0-12.492,2.43-18.444,7.222c-1.55,1.248-3.847,1.192-5.458-0.129
		c-1.053-0.863-1.653-2.142-1.647-3.508C253.689,37.369,253.897,35.924,255.254,34.832z"/>
	<path id="XMLID_405_" d="M422.24,89.617c-4.143,0-7.455,3.357-7.455,7.5s3.402,7.5,7.545,7.5s7.5-3.357,7.5-7.5s-3.357-7.5-7.5-7.5
		H422.24z"/>
	<path id="XMLID_406_" d="M470.706,68.504c4.143,0,7.5-3.357,7.5-7.5s-3.357-7.5-7.5-7.5h-0.09c-4.143,0-7.455,3.357-7.455,7.5
		S466.563,68.504,470.706,68.504z"/>
	<path id="XMLID_407_" d="M189.336,48.504c4.143,0,7.5-3.357,7.5-7.5s-3.357-7.5-7.5-7.5h-0.09c-4.143,0-7.455,3.357-7.455,7.5
		S185.193,48.504,189.336,48.504z"/>
	<path id="XMLID_408_" d="M66.004,264.564c4.104,0,7.452-3.304,7.498-7.418c0.045-4.142-3.275-7.536-7.418-7.582l-0.089-0.001
		c-0.028,0-0.056,0-0.084,0c-4.103,0-7.408,3.305-7.453,7.418c-0.046,4.142,3.319,7.537,7.462,7.583
		C65.948,264.564,65.975,264.564,66.004,264.564z"/>
	<path id="XMLID_409_" d="M110.027,337.179l-0.09-0.001c-0.027,0-0.055,0-0.083,0c-4.104,0-7.408,3.305-7.453,7.419
		c-0.045,4.142,3.321,7.536,7.464,7.582c0.027,0,0.055,0,0.083,0c4.104,0,7.453-3.305,7.498-7.419
		C117.491,340.618,114.17,337.225,110.027,337.179z"/>
</g>
<g>
</g>
<g>
</g>
<g>
</g>
<g>
</g>
<g>
</g>
<g>
</g>
<g>
</g>
<g>
</g>
<g>
</g>
<g>
</g>
<g>
</g>
<g>
</g>
<g>
</g>
<g>
</g>
<g>
</g>
</svg>
