<?xml version="1.0" encoding="iso-8859-1"?>
<!-- Generator: Adobe Illustrator 19.0.0, SVG Export Plug-In . SVG Version: 6.00 Build 0)  -->
<svg version="1.1" id="Layer_1" xmlns="http://www.w3.org/2000/svg" xmlns:xlink="http://www.w3.org/1999/xlink" x="0px" y="0px"
	 viewBox="0 0 512.003 512.003" style="enable-background:new 0 0 512.003 512.003;" xml:space="preserve">
<g id="XMLID_460_">
	<path id="XMLID_461_" d="M388.485,245.185c-4.594,0-9.103,0.703-13.403,2.059c-0.425-17.597-3.972-34.725-10.566-50.973
		c-4.425-10.863-10.162-21.167-17.047-30.619c-4.479-6.166-9.464-11.999-14.808-17.33c-6.4-6.404-13.397-12.194-20.861-17.292
		c4.624-4.817,8.735-10.11,12.225-15.767c2.175-3.525,1.081-8.146-2.445-10.321c-3.527-2.178-8.146-1.08-10.321,2.444
		c-3.218,5.215-7.059,10.069-11.416,14.427c-13.691,13.692-31.611,21.664-50.122,22.765c15.488-16.741,24.362-39.161,24.362-62.87
		c0-3.458-0.19-6.89-0.56-10.282c13.944-8.914,30.391-13.144,46.67-11.957c1.27,0.094,2.259,1.083,2.352,2.353
		c0.398,5.453,0.186,11.002-0.632,16.494c-0.61,4.097,2.216,7.912,6.313,8.522c0.375,0.056,0.747,0.083,1.114,0.083
		c3.653,0,6.854-2.674,7.409-6.396c0.98-6.583,1.235-13.243,0.756-19.797c-0.629-8.614-7.601-15.587-16.216-16.218
		c-17.576-1.291-35.298,2.71-50.827,11.31c-4.871-17.035-14.513-32.373-28.041-44.023c-6.48-5.579-16.255-5.582-22.735-0.001
		c-13.534,11.65-23.18,26.987-28.055,44.018c-15.525-8.591-33.289-12.581-50.812-11.306c-8.616,0.63-15.588,7.602-16.22,16.217
		c-1.878,25.635,7.327,50.979,25.314,69.929c-37.414,25.354-61.282,66.485-64.396,111.745c-0.284,4.132,2.835,7.713,6.968,7.997
		c0.175,0.012,0.349,0.018,0.522,0.018c3.907,0,7.202-3.028,7.475-6.985c2.883-41.905,25.59-79.87,61.019-102.437
		c2.835,2.142,5.772,4.112,8.8,5.901c-3.701,3.117-5.579,6.728-5.579,10.812c0,23.322,60.373,23.996,67.257,23.996
		s67.258-0.674,67.258-23.996c0-4.37-2.143-8.198-6.38-11.459c2.501-1.524,4.942-3.165,7.309-4.933
		c7.893,5.059,15.245,10.97,21.892,17.62c4.793,4.781,9.259,10.009,13.28,15.543c0.105,0.145,0.205,0.293,0.309,0.438h-31.256
		c-24.64,0-44.686,20.046-44.686,44.698c0,12.16-7.232,22.722-17.949,27.289v-3.205c0-5.636-2.608-10.781-7.155-14.117
		c-4.531-3.323-10.198-4.266-15.551-2.578c-21.157,6.662-35.372,26.053-35.372,48.25c0,12.499,4.567,23.944,12.106,32.78
		c-3.624,3.93-7.748,7.352-12.319,10.189l-68.726,42.653c-2.177-4.195-4.137-8.514-5.857-12.958
		c-5.788-14.924-8.722-30.703-8.722-46.899v-23.924c0-4.143-3.358-7.5-7.5-7.5s-7.5,3.357-7.5,7.5v23.924
		c0,18.06,3.276,35.663,9.735,52.318c6.831,17.647,16.928,33.593,30.01,47.394c0.002,0.003,0.074,0.078,0.076,0.08l0.22,0.23
		c19.138,20.078,29.678,46.031,29.678,73.078v30.387c0,4.143,3.358,7.5,7.5,7.5s7.5-3.357,7.5-7.5v-30.387
		c0-30.918-12.011-60.547-33.839-83.447l-0.248-0.26c-4.944-5.216-9.406-10.777-13.38-16.644l68.963-42.8
		c5.847-3.629,11.109-8.024,15.718-13.081c7.853,5.021,17.17,7.946,27.163,7.946c4.142,0,7.5-3.357,7.5-7.5s-3.358-7.5-7.5-7.5
		c-19.618,0-35.578-15.961-35.578-35.579c0-15.616,9.998-29.257,24.878-33.943c1.019-0.317,1.798,0.093,2.173,0.367
		c0.384,0.281,1.027,0.918,1.027,2.021v28.084c0,4.143,3.358,7.5,7.5,7.5s7.5-3.357,7.5-7.5v-9.044
		c19.341-5.206,32.949-22.665,32.949-43.136c0-16.369,13.317-29.686,29.686-29.686h40.591c2.077,3.904,3.968,7.908,5.637,12.006
		c6.308,15.542,9.506,31.999,9.506,48.914v50.182c0,16.268-2.989,32.025-8.59,46.655c-6.85,0.187-22.093-0.94-39.78-12.103
		c-3.504-2.214-8.135-1.164-10.346,2.339c-2.211,3.502-1.164,8.134,2.339,10.345c16.186,10.218,30.986,13.392,41.041,14.181
		c-10.524,19.645-26.132,36.548-45.84,48.87c-10.505,6.569-18.206,16.688-21.682,28.492c-1.17,3.974,1.102,8.144,5.076,9.313
		c0.707,0.208,1.42,0.308,2.122,0.308c3.24,0,6.229-2.117,7.191-5.383c2.439-8.282,7.854-15.39,15.246-20.012
		c34.023-21.273,57.109-54.776,65.106-92.95c5.204,2.075,10.776,3.155,16.477,3.155c24.549,0,44.521-19.972,44.521-44.521
		S413.034,245.185,388.485,245.185z M229.472,23.163c0.45-0.388,1.015-0.582,1.58-0.582c0.565,0,1.13,0.194,1.581,0.583
		c16.81,14.475,26.451,35.813,26.451,58.544c0,23.542-10.386,45.534-28.031,59.869c-17.654-14.341-28.047-36.334-28.047-59.869
		C203.005,58.982,212.652,37.643,229.472,23.163z M139.559,61.822c0.093-1.27,1.083-2.259,2.353-2.352
		c16.234-1.191,32.719,3.069,46.651,11.979c-0.368,3.385-0.558,6.809-0.558,10.259c0,23.706,8.88,46.128,24.379,62.873
		c-18.521-1.097-36.445-9.067-50.134-22.756C146.211,105.785,137.941,83.915,139.559,61.822z M283.225,157.751
		c-5.081,3.59-22.729,8.95-51.246,8.95s-46.164-5.36-51.245-8.95c1.097-0.759,3.071-1.847,6.447-3.053
		c9.519,3.291,19.521,5.022,29.612,5.022c4.749,0,9.516-0.399,14.259-1.17c4.739,0.77,9.499,1.168,14.244,1.168
		c10.424,0,20.76-1.832,30.562-5.342C279.629,155.651,281.941,156.876,283.225,157.751z M388.485,319.226
		c-4.97,0-9.784-1.244-14.091-3.591c0.48-4.823,0.732-9.699,0.732-14.619v-37.624c4.118-2.096,8.668-3.207,13.359-3.207
		c16.278,0,29.521,13.243,29.521,29.521S404.763,319.226,388.485,319.226z"/>
	<path id="XMLID_467_" d="M282.728,468.592c-4.142,0-7.5,3.357-7.5,7.5v28.411c0,4.143,3.358,7.5,7.5,7.5s7.5-3.357,7.5-7.5v-28.411
		C290.228,471.95,286.87,468.592,282.728,468.592z"/>
	<path id="XMLID_468_" d="M327.107,260.185c0.024,0,0.048,0,0.072,0c4.109,0,7.459-3.312,7.498-7.43
		c0.039-4.142-3.287-7.531-7.429-7.57l-0.104-0.001c-0.024,0-0.048,0-0.072,0c-4.109,0-7.459,3.312-7.498,7.43
		c-0.039,4.142,3.287,7.531,7.429,7.57L327.107,260.185z"/>
	<path id="XMLID_469_" d="M349.795,37.327c1.912,0,3.825-0.727,5.288-2.181l6.719-6.68c2.938-2.921,2.952-7.669,0.031-10.607
		c-2.92-2.935-7.669-2.95-10.606-0.031l-6.719,6.68c-2.938,2.921-2.952,7.669-0.031,10.607
		C345.941,36.589,347.868,37.327,349.795,37.327z"/>
	<path id="XMLID_470_" d="M328.943,23.886c0.657,0.179,1.317,0.264,1.967,0.264c3.303,0,6.329-2.199,7.234-5.54l2.479-9.145
		c1.084-3.997-1.279-8.117-5.276-9.2c-3.998-1.088-8.117,1.279-9.201,5.276l-2.479,9.145
		C322.584,18.683,324.946,22.803,328.943,23.886z"/>
	<path id="XMLID_471_" d="M355.615,50.712c0.89,3.36,3.925,5.582,7.245,5.582c0.635,0,1.281-0.081,1.924-0.252l9.159-2.425
		c4.004-1.06,6.391-5.165,5.331-9.17c-1.06-4.003-5.166-6.395-9.169-5.33l-9.159,2.425
		C356.941,42.602,354.554,46.707,355.615,50.712z"/>
	<path id="XMLID_472_" d="M103.44,35.147c1.463,1.454,3.375,2.181,5.288,2.181c1.927,0,3.853-0.738,5.319-2.212
		c2.92-2.938,2.906-7.687-0.031-10.607l-6.719-6.68c-2.938-2.919-7.686-2.903-10.606,0.031c-2.92,2.938-2.906,7.687,0.031,10.607
		L103.44,35.147z"/>
	<path id="XMLID_473_" d="M120.378,18.61c0.906,3.342,3.931,5.54,7.234,5.54c0.649,0,1.31-0.085,1.967-0.264
		c3.998-1.083,6.36-5.203,5.276-9.2l-2.479-9.145c-1.084-3.999-5.204-6.365-9.201-5.276c-3.998,1.083-6.36,5.203-5.276,9.2
		L120.378,18.61z"/>
	<path id="XMLID_474_" d="M95.662,56.294c3.32,0,6.355-2.222,7.245-5.582c1.061-4.005-1.326-8.11-5.331-9.17l-9.159-2.425
		c-4.003-1.064-8.11,1.327-9.169,5.33c-1.061,4.005,1.326,8.11,5.331,9.17l9.159,2.425C94.381,56.213,95.027,56.294,95.662,56.294z"
		/>
</g>
<g>
</g>
<g>
</g>
<g>
</g>
<g>
</g>
<g>
</g>
<g>
</g>
<g>
</g>
<g>
</g>
<g>
</g>
<g>
</g>
<g>
</g>
<g>
</g>
<g>
</g>
<g>
</g>
<g>
</g>
</svg>
