<?xml version="1.0" encoding="iso-8859-1"?>
<!-- Generator: Adobe Illustrator 19.0.0, SVG Export Plug-In . SVG Version: 6.00 Build 0)  -->
<svg version="1.1" id="Layer_1" xmlns="http://www.w3.org/2000/svg" xmlns:xlink="http://www.w3.org/1999/xlink" x="0px" y="0px"
	 viewBox="0 0 511.348 511.348" style="enable-background:new 0 0 511.348 511.348;" xml:space="preserve">
<g id="XMLID_410_">
	<path id="XMLID_411_" d="M376.584,279.765c-3.595,0-7.126,0.507-10.528,1.45c-0.204-5.809-0.805-11.592-1.797-17.29h2.325
		c9.649,0,17.5-7.851,17.5-17.5v-17.714c0-21.481-6.286-42.245-18.179-60.046c-2.302-3.445-6.959-4.372-10.402-2.07
		c-3.444,2.301-4.371,6.958-2.07,10.402c10.239,15.327,15.651,33.209,15.651,51.714v17.714c0,1.379-1.121,2.5-2.5,2.5h-30.876
		v-40.08c0-4.143-3.357-7.5-7.5-7.5s-7.5,3.357-7.5,7.5v40.08H199.004v-10.08c0-4.143-3.357-7.5-7.5-7.5s-7.5,3.357-7.5,7.5v10.08
		h-12.333v-22.08c0-4.143-3.357-7.5-7.5-7.5s-7.5,3.357-7.5,7.5v22.08h-43.748c-1.379,0-2.5-1.121-2.5-2.5V216.37
		c0-44.599,36.283-80.882,80.882-80.882h9.702c0.037,0,0.073-0.005,0.11-0.006c7.163,6.062,15.994,10.207,25.702,11.631v3.375
		c-17.208,0.409-33.23,2.22-45.738,5.203c-18.229,4.348-27.091,10.751-27.091,19.576c0,8.826,8.861,15.229,27.091,19.577
		c14.31,3.413,33.216,5.292,53.238,5.292c20.021,0,38.929-1.879,53.237-5.292c18.229-4.348,27.091-10.751,27.091-19.577
		c0-8.825-8.861-15.229-27.091-19.576c-12.508-2.983-28.53-4.794-45.737-5.203v-3.375c9.705-1.423,18.534-5.566,25.696-11.625h8.347
		c20.297,0,39.59,6.408,55.793,18.532c1.348,1.009,2.924,1.495,4.487,1.495c2.283,0,4.538-1.038,6.011-3.007
		c2.481-3.316,1.805-8.017-1.512-10.498c-17.807-13.324-38.823-20.693-60.995-21.448c3.919-7.259,6.148-15.56,6.148-24.372V51.475
		C285.795,23.092,262.702,0,234.318,0c-22.777,0-42.559,14.624-49.223,36.39c-1.212,3.96,1.016,8.154,4.977,9.367
		c3.957,1.209,8.153-1.015,9.367-4.977C204.16,25.36,218.178,15,234.319,15c20.112,0,36.476,16.362,36.476,36.475v44.717
		c0,17.542-12.449,32.227-28.976,35.695v-23.099l15.591-15.592c2.929-2.929,2.929-7.678-0.001-10.606
		c-2.928-2.928-7.677-2.929-10.606,0.001l-4.983,4.984V65.682c0-4.143-3.357-7.5-7.5-7.5s-7.5,3.357-7.5,7.5v39.998
		c0,0.002,0,0.003,0,0.005v26.203c-16.527-3.468-28.976-18.154-28.976-35.696V72.763c0-4.143-3.357-7.5-7.5-7.5s-7.5,3.357-7.5,7.5
		v23.429c0,8.794,2.221,17.078,6.125,24.327c-51.794,1.245-93.546,43.764-93.546,95.852v30.055c0,9.649,7.851,17.5,17.5,17.5h3.863
		c-1.415,7.622-2.133,15.377-2.133,23.148v27.512c0,4.143,3.357,7.5,7.5,7.5s7.5-3.357,7.5-7.5v-27.512
		c0-7.787,0.823-15.553,2.431-23.148h100.813v10.24c-17.739,6.429-30.448,23.443-30.448,43.373c0,14.114,6.379,26.76,16.398,35.226
		c-12.73,16.492-32.282,26.194-53.32,26.194H141.62c-1.675-3.299-3.191-6.689-4.537-10.167c-2.651-6.836-4.622-13.997-5.858-21.283
		c-0.692-4.083-4.554-6.835-8.649-6.14c-4.084,0.693-6.832,4.565-6.14,8.649c1.405,8.279,3.646,16.421,6.661,24.192
		c5.924,15.306,14.682,29.135,26.014,41.09l0.271,0.285c16.273,17.072,25.235,39.137,25.235,62.128v26.135
		c0,4.143,3.357,7.5,7.5,7.5s7.5-3.357,7.5-7.5v-26.135c0-26.863-10.434-52.603-29.38-72.479l-0.226-0.238
		c-3.32-3.502-6.382-7.187-9.19-11.037h14.706c26.333,0,50.763-12.426,66.285-33.466c5.198,2.035,10.845,3.164,16.755,3.164
		c4.143,0,7.5-3.357,7.5-7.5s-3.357-7.5-7.5-7.5c-17.158,0-31.118-13.96-31.118-31.118s13.96-31.118,31.118-31.118
		c4.143,0,7.5-3.357,7.5-7.5s-3.357-7.5-7.5-7.5c-0.225,0-0.446,0.014-0.67,0.017v-7.512h101.11
		c1.416,7.125,2.136,14.427,2.136,21.749v43.159c0,13.605-2.453,26.792-7.056,39.062c-6.076,0.025-18.673-1.228-32.937-10.232
		c-3.5-2.213-8.134-1.164-10.345,2.339s-1.164,8.135,2.339,10.345c13.26,8.37,25.469,11.306,34.193,12.198
		c-8.951,16.15-21.988,30.044-38.316,40.254c-13.085,8.181-20.897,22.178-20.897,37.442v43.606c0,4.143,3.357,7.5,7.5,7.5
		s7.5-3.357,7.5-7.5v-43.606c0-10.06,5.177-19.302,13.849-24.724c29.158-18.23,49.059-46.816,56.22-79.435
		c4.262,1.543,8.776,2.363,13.392,2.363c21.692,0,39.341-17.647,39.341-39.34S398.276,279.765,376.584,279.765z M170.347,175.268
		c5.998-3.702,25.337-9.023,56.473-9.775v19.552C195.683,184.292,176.345,178.97,170.347,175.268z M298.291,175.268
		c-5.998,3.702-25.336,9.024-56.472,9.776v-19.552C272.955,166.244,292.293,171.565,298.291,175.268z M376.584,343.445
		c-3.864,0-7.612-0.914-11.003-2.637c0.371-3.953,0.562-7.948,0.562-11.975V297.11c3.24-1.541,6.791-2.345,10.44-2.345
		c13.422,0,24.341,10.919,24.341,24.341C400.925,332.526,390.006,343.445,376.584,343.445z"/>
	<path id="XMLID_416_" d="M323.856,294.765c4.104,0,7.453-3.305,7.498-7.419c0.045-4.142-3.276-7.535-7.419-7.581l-0.09-0.001
		c-0.027,0-0.055,0-0.083,0c-4.104,0-7.408,3.305-7.453,7.419c-0.045,4.142,3.321,7.536,7.464,7.582
		C323.801,294.765,323.828,294.765,323.856,294.765z"/>
	<path id="XMLID_417_" d="M191.553,351.849c4.104,0,7.454-3.307,7.498-7.421c0.043-4.142-3.279-7.535-7.421-7.579l-0.093-0.001
		c-4.125-0.013-7.489,3.279-7.532,7.422c-0.044,4.142,3.325,7.535,7.467,7.579C191.499,351.849,191.525,351.849,191.553,351.849z"/>
	<path id="XMLID_418_" d="M325.175,38.2c-0.008,0-0.015,0-0.021,0c-4.132,0-7.488,3.344-7.5,7.479
		c-0.012,4.142,3.336,7.51,7.479,7.521l9.488,0.027c0.008,0,0.015,0,0.021,0c4.132,0,7.488-3.344,7.5-7.479
		c0.012-4.142-3.336-7.51-7.479-7.521L325.175,38.2z"/>
	<path id="XMLID_419_" d="M321.117,30.49c1.265,0,2.548-0.32,3.724-0.994l8.231-4.72c3.594-2.061,4.836-6.645,2.775-10.237
		c-2.06-3.595-6.645-4.838-10.236-2.775l-8.231,4.719c-3.594,2.061-4.836,6.645-2.776,10.237
		C315.99,29.137,318.518,30.49,321.117,30.49z"/>
	<path id="XMLID_420_" d="M317.21,74.871l8.203,4.768c1.186,0.689,2.481,1.017,3.762,1.017c2.584,0,5.1-1.337,6.491-3.732
		c2.081-3.581,0.865-8.172-2.716-10.253l-8.203-4.768c-3.579-2.082-8.172-0.866-10.253,2.716
		C312.413,68.199,313.629,72.79,317.21,74.871z"/>
	<path id="XMLID_421_" d="M134.341,53.228c0.007,0,0.015,0,0.021,0l9.488-0.027c4.143-0.012,7.49-3.38,7.479-7.521
		c-0.012-4.135-3.367-7.479-7.5-7.479c-0.007,0-0.015,0-0.021,0l-9.488,0.027c-4.143,0.012-7.49,3.38-7.479,7.521
		C126.853,49.884,130.208,53.228,134.341,53.228z"/>
	<path id="XMLID_422_" d="M135.91,24.776l8.231,4.72c1.176,0.674,2.458,0.994,3.724,0.994c2.6,0,5.127-1.354,6.514-3.771
		c2.06-3.593,0.817-8.177-2.776-10.237l-8.231-4.719c-3.59-2.061-8.176-0.818-10.236,2.775
		C131.074,18.132,132.316,22.716,135.91,24.776z"/>
	<path id="XMLID_423_" d="M144.235,61.902l-8.203,4.768c-3.581,2.081-4.797,6.672-2.716,10.253c1.393,2.396,3.907,3.732,6.491,3.732
		c1.279,0,2.576-0.327,3.762-1.017l8.203-4.768c3.581-2.081,4.797-6.672,2.716-10.253C152.406,61.036,147.814,59.82,144.235,61.902z
		"/>
</g>
<g>
</g>
<g>
</g>
<g>
</g>
<g>
</g>
<g>
</g>
<g>
</g>
<g>
</g>
<g>
</g>
<g>
</g>
<g>
</g>
<g>
</g>
<g>
</g>
<g>
</g>
<g>
</g>
<g>
</g>
</svg>
