<?xml version="1.0" encoding="iso-8859-1"?>
<!-- Generator: Adobe Illustrator 19.0.0, SVG Export Plug-In . SVG Version: 6.00 Build 0)  -->
<svg version="1.1" id="Layer_1" xmlns="http://www.w3.org/2000/svg" xmlns:xlink="http://www.w3.org/1999/xlink" x="0px" y="0px"
	 viewBox="0 0 511.989 511.989" style="enable-background:new 0 0 511.989 511.989;" xml:space="preserve">
<g id="XMLID_443_">
	<path id="XMLID_444_" d="M428.732,280.405c-3.577,0-7.118,0.487-10.529,1.432c-0.158-4.489-0.55-8.967-1.18-13.397h1.907
		c9.54,0,17.301-7.761,17.301-17.301v-21.788c0-22.071-6.609-43.309-19.114-61.418c-2.354-3.408-7.025-4.263-10.434-1.91
		c-3.408,2.354-4.264,7.025-1.91,10.434c10.766,15.592,16.457,33.883,16.457,52.895v21.788c0,1.269-1.032,2.301-2.301,2.301h-17.548
		v-43.954c0-4.143-3.358-7.5-7.5-7.5s-7.5,3.357-7.5,7.5v43.954h-9.502v-9.161c0-4.143-3.358-7.5-7.5-7.5s-7.5,3.357-7.5,7.5v9.161
		h-39.708c-4.408,0-8.728,0.702-12.841,1.99c-0.539,0.112-1.055,0.287-1.545,0.509c-8.969,3.182-16.793,9.277-22.041,17.451
		c-20.149,4.936-35.148,23.14-35.148,44.789c0,12.5,5.006,23.847,13.11,32.161c-14.369,13.057-42.314,27.337-96.214,29.252
		c-1.284,0.032-2.512-0.426-3.446-1.328c-0.952-0.919-1.476-2.153-1.476-3.477V217.011c0-21.25,8.177-41.321,23.023-56.519
		c14.473-14.814,33.718-23.382,54.327-24.265l16.338,16.335c-10.747,1.137-20.413,2.88-28.073,5.094
		c-5.454,1.575-22.049,6.371-22.049,18.253c0,8.825,8.862,15.229,27.091,19.576c14.309,3.413,33.216,5.292,53.238,5.292
		s38.929-1.879,53.238-5.292c18.229-4.348,27.091-10.751,27.091-19.576c0-15.062-27.134-21.025-50.099-23.374l16.264-16.264
		c17.959,0.94,35.122,6.99,49.693,17.552c1.33,0.964,2.87,1.429,4.396,1.429c2.322,0,4.612-1.075,6.079-3.1
		c2.431-3.354,1.683-8.043-1.67-10.474c-13.471-9.765-28.852-16.201-45.085-18.978c6.794-7.782,10.514-17.637,10.514-28.07
		c0-11.423-4.447-22.16-12.521-30.234c-15.833-15.833-41.109-16.621-57.902-2.355c-16.774-14.267-42.057-13.479-57.909,2.359
		c-8.065,8.077-12.507,18.813-12.507,30.23c0,10.398,3.694,20.224,10.447,28.001c-19.386,3.447-37.21,12.777-51.283,27.039
		c-9.361-11.925-22.287-20.735-36.978-25.082c-16.898-5-35.057-3.748-51.133,3.526c-36.918,16.711-53.358,60.341-36.648,97.258
		c5.114,11.299,13.053,21.178,22.958,28.568c1.346,1.004,2.919,1.489,4.479,1.488c2.287,0,4.545-1.042,6.017-3.016
		c2.477-3.319,1.793-8.019-1.526-10.496c-7.877-5.876-14.192-13.736-18.263-22.73c-13.299-29.382-0.214-64.106,29.169-77.406
		c12.792-5.792,27.244-6.79,40.69-2.809c12.717,3.763,23.761,11.723,31.306,22.495c-5.542,7.771-9.855,16.269-12.837,25.247
		c-6.036-6.036-15.15-13.396-26.904-17.825c-3.877-1.46-8.202,0.498-9.663,4.374c-1.461,3.876,0.498,8.202,4.374,9.663
		c16.326,6.151,26.686,19.969,28.084,21.916c-0.506,4.007-0.767,8.069-0.767,12.168v28.17c-1.944,1.166-3.968,2.234-6.046,3.174
		c-9.029,4.087-19.001,5.82-28.838,5.015c-4.13-0.352-7.75,2.733-8.088,6.861c-0.338,4.129,2.734,7.75,6.862,8.088
		c1.977,0.162,3.958,0.243,5.938,0.243c10.358,0,20.679-2.21,30.171-6.482v112.707c0,5.431,2.152,10.498,6.059,14.27
		c3.717,3.587,8.549,5.538,13.676,5.538c0.239,0,0.479-0.004,0.719-0.013c3.782-0.134,7.44-0.333,10.997-0.583
		c-1.878,4.284-4.341,8.924-7.004,11.587c-2.929,2.929-2.929,7.678,0,10.606c1.465,1.465,3.384,2.197,5.304,2.197
		c1.919,0,3.839-0.732,5.303-2.196c3.384-3.384,6.217-8.021,8.436-12.486c3.142,4.288,6.551,8.384,10.214,12.249l0.255,0.268
		c4.58,4.805,8.647,10.104,12.088,15.747c1.413,2.318,3.881,3.598,6.411,3.598c1.33,0,2.677-0.354,3.896-1.097
		c3.537-2.156,4.656-6.771,2.5-10.308c-3.997-6.558-8.72-12.711-14.054-18.308l-0.21-0.221c-4.137-4.365-7.905-9.065-11.278-14.029
		c39.831-6.091,62.433-19.862,75.114-32.248c6.235,3.15,13.27,4.936,20.719,4.936c4.142,0,7.5-3.357,7.5-7.5s-3.358-7.5-7.5-7.5
		c-17.158,0-31.118-13.959-31.118-31.117c0-15.028,10.709-27.602,24.897-30.492c-1.054,15.642,0.997,35.954,15.938,46.91
		c1.336,0.98,2.89,1.453,4.429,1.453c2.308-0.001,4.584-1.063,6.054-3.065c2.45-3.341,1.728-8.034-1.613-10.483
		c-11.606-8.511-11.022-29.582-8.773-43.317c2.01,5.538,5.295,11.584,10.679,16.63c1.447,1.356,3.289,2.027,5.127,2.027
		c2.001,0,3.998-0.796,5.474-2.372c2.833-3.022,2.678-7.769-0.344-10.601c-5.18-4.854-7.41-11.507-8.371-16.246
		c1.017-0.113,2.043-0.184,3.078-0.184h79.677c0.952,5.883,1.441,11.878,1.441,17.874v43.16c0,13.616-2.457,26.812-7.067,39.091
		c-6.068,0.06-18.523-1.17-32.925-10.26c-3.504-2.213-8.135-1.163-10.346,2.339c-2.211,3.503-1.164,8.135,2.339,10.345
		c13.261,8.37,25.469,11.306,34.193,12.198c-8.952,16.15-21.988,30.045-38.317,40.254c-13.084,8.182-20.896,22.179-20.896,37.442
		v43.606c0,4.143,3.358,7.5,7.5,7.5s7.5-3.357,7.5-7.5v-43.606c0-10.06,5.177-19.302,13.848-24.724
		c29.156-18.23,49.057-46.814,56.219-79.43c4.273,1.545,8.802,2.358,13.393,2.358c21.692,0,39.341-17.648,39.341-39.341
		S450.424,280.405,428.732,280.405z M350.406,175.928c-6.507,3.991-28.454,9.849-63.94,9.849c-35.491,0-57.439-5.859-63.943-9.851
		c5.066-3.062,20.14-7.906,47.666-9.437l3.571,3.57c3.503,3.503,8.104,5.254,12.706,5.254s9.205-1.752,12.708-5.255l3.569-3.569
		C330.276,168.027,345.343,172.879,350.406,175.928z M239.162,75.006c5.413-5.409,12.521-8.114,19.628-8.114
		c7.106,0,14.211,2.704,19.619,8.112l2.754,2.754c1.407,1.406,3.314,2.196,5.303,2.196c0.002,0,0.005,0,0.007,0
		c1.992-0.002,3.901-0.796,5.306-2.207l2.732-2.741c10.824-10.817,28.431-10.818,39.247-0.002c5.241,5.24,8.127,12.211,8.127,19.627
		c0,7.417-2.886,14.388-8.127,19.628l-45.192,45.191c-1.159,1.159-3.042,1.16-4.201,0.001l-45.197-45.188
		c-5.237-5.244-8.121-12.217-8.121-19.632S233.931,80.245,239.162,75.006z M428.732,344.087c-3.84,0-7.612-0.903-11.004-2.623
		c0.372-3.958,0.564-7.957,0.564-11.989v-31.709c3.246-1.542,6.809-2.361,10.44-2.361c13.421,0,24.341,10.919,24.341,24.341
		S442.153,344.087,428.732,344.087z"/>
	<path id="XMLID_449_" d="M231.959,456.257c-4.092,0.64-6.892,4.476-6.252,8.568c0.702,4.49,1.058,9.042,1.058,13.528v26.136
		c0,4.143,3.358,7.5,7.5,7.5s7.5-3.357,7.5-7.5v-26.136c0-5.26-0.417-10.591-1.237-15.845
		C239.888,458.416,236.05,455.614,231.959,456.257z"/>
	<path id="XMLID_450_" d="M383.502,287.905c0-4.143-3.358-7.5-7.5-7.5h-0.089c-4.142,0-7.456,3.357-7.456,7.5s3.402,7.5,7.544,7.5
		S383.502,292.048,383.502,287.905z"/>
	<path id="XMLID_451_" d="M379.901,77.403c2.218,2.217,5.166,3.438,8.301,3.438s6.084-1.222,8.299-3.438l18.295-18.295
		c4.112-4.111,6.377-9.58,6.377-15.397c0-5.816-2.265-11.284-6.376-15.396c-7.197-7.198-18.224-8.291-26.595-3.273
		c-8.361-5.017-19.397-3.927-26.605,3.276c-4.106,4.112-6.368,9.579-6.368,15.393c0,5.814,2.262,11.281,6.373,15.397L379.901,77.403
		z M372.205,38.922c1.322-1.32,3.057-1.98,4.792-1.98c1.733,0,3.466,0.659,4.785,1.978l1.115,1.115
		c1.407,1.407,3.315,2.198,5.305,2.198c0.002,0,0.004,0,0.006,0c1.992-0.002,3.902-0.796,5.308-2.207l1.098-1.104
		c2.643-2.641,6.938-2.639,9.577-0.002c0,0.001,0,0.001,0.001,0.001c1.278,1.278,1.982,2.979,1.982,4.789
		c0,1.811-0.704,3.512-1.983,4.79L388.2,64.49l-15.989-15.986c-1.278-1.28-1.982-2.982-1.982-4.794
		C370.229,41.899,370.933,40.197,372.205,38.922z"/>
	<path id="XMLID_454_" d="M191.472,55.452c2.289,2.288,5.294,3.433,8.301,3.433c3.005-0.001,6.012-1.145,8.3-3.433l18.296-18.296
		c4.112-4.112,6.376-9.58,6.376-15.396s-2.265-11.284-6.376-15.396c-7.197-7.197-18.225-8.29-26.595-3.273
		c-8.361-5.017-19.397-3.927-26.605,3.276c-4.107,4.113-6.369,9.579-6.369,15.393c0,5.813,2.262,11.279,6.373,15.397L191.472,55.452
		z M183.778,16.971c1.321-1.319,3.056-1.979,4.79-1.979s3.469,0.66,4.79,1.98l1.115,1.114c1.406,1.405,3.313,2.194,5.301,2.194
		c0.003,0,0.005,0,0.008,0c1.991-0.002,3.899-0.796,5.304-2.206l1.099-1.103c2.643-2.643,6.938-2.641,9.577-0.003
		c0,0.001,0,0.001,0.001,0.001c1.278,1.278,1.982,2.979,1.982,4.789c0,1.811-0.705,3.512-1.983,4.79l-15.99,15.989l-15.988-15.984
		c-1.279-1.281-1.984-2.984-1.984-4.795S182.505,18.247,183.778,16.971z"/>
	<path id="XMLID_457_" d="M189.428,89.928c-4.142,0-7.453,3.357-7.453,7.5s3.404,7.5,7.546,7.5s7.5-3.357,7.5-7.5
		s-3.358-7.5-7.5-7.5H189.428z"/>
	<path id="XMLID_458_" d="M322.383,33.973c4.142,0,7.5-3.357,7.5-7.5s-3.358-7.5-7.5-7.5h-0.093c-4.142,0-7.454,3.357-7.454,7.5
		S318.241,33.973,322.383,33.973z"/>
	<path id="XMLID_459_" d="M380.263,94.477c-4.142,0-7.454,3.357-7.454,7.5s3.404,7.5,7.546,7.5s7.5-3.357,7.5-7.5
		s-3.358-7.5-7.5-7.5H380.263z"/>
</g>
<g>
</g>
<g>
</g>
<g>
</g>
<g>
</g>
<g>
</g>
<g>
</g>
<g>
</g>
<g>
</g>
<g>
</g>
<g>
</g>
<g>
</g>
<g>
</g>
<g>
</g>
<g>
</g>
<g>
</g>
</svg>
