<?xml version="1.0" encoding="iso-8859-1"?>
<!-- Generator: Adobe Illustrator 19.0.0, SVG Export Plug-In . SVG Version: 6.00 Build 0)  -->
<svg version="1.1" id="Layer_1" xmlns="http://www.w3.org/2000/svg" xmlns:xlink="http://www.w3.org/1999/xlink" x="0px" y="0px"
	 viewBox="0 0 511.508 511.508" style="enable-background:new 0 0 511.508 511.508;" xml:space="preserve">
<g id="XMLID_424_">
	<path id="XMLID_425_" d="M387.855,279.924c-3.594,0-7.124,0.507-10.526,1.45c-0.367-10.554-2.031-20.931-4.979-30.986h0.981
		c9.712,0,17.612-7.9,17.612-17.612v-24.529c0-6.595-3.648-12.347-9.028-15.364c-6.198-34.923-30.455-64.594-63.261-77.775
		c4.998-10.479,7.805-22.196,7.805-34.558c0-11.906-2.553-23.392-7.589-34.137c-1.757-3.749-6.22-5.367-9.974-3.608
		c-3.751,1.758-5.366,6.223-3.608,9.974c4.095,8.738,6.171,18.082,6.171,27.771c0,14.296-4.614,27.528-12.412,38.313l-45.636-45.635
		V15.43c11.853,1.34,22.996,5.852,32.573,13.266c3.273,2.533,7.985,1.937,10.521-1.34c2.535-3.275,1.936-7.986-1.34-10.521
		C280.938,5.821,263.906,0,245.911,0c-44.415,0-80.549,36.134-80.549,80.549c0,11.2,2.303,21.87,6.452,31.57
		c-9.708,3.119-18.768,7.827-27.011,14.051c-3.306,2.495-3.962,7.198-1.467,10.505c1.475,1.953,3.719,2.98,5.992,2.98
		c1.573,0,3.161-0.493,4.513-1.515c7.662-5.785,16.169-9.991,25.318-12.556c3.929,5.805,8.609,11.056,13.875,15.651
		c-13.362,3.941-19.907,9.553-19.907,17c0,12.374,18.734,16.842,24.891,18.311c12.89,3.073,29.91,4.767,47.925,4.767
		c18.015,0,35.036-1.693,47.925-4.767c6.156-1.469,24.891-5.937,24.891-18.311c0-7.457-6.561-13.073-19.957-17.015
		c4.465-3.898,8.502-8.27,12.02-13.053c27.621,10.213,48.543,33.969,55.311,62.466H123.866c1.157-10.18,4.359-20.098,9.411-29.02
		c2.041-3.604,0.773-8.181-2.831-10.222s-8.182-0.774-10.222,2.831c-6.841,12.082-10.847,25.69-11.679,39.55
		c-4.587,3.183-7.602,8.479-7.602,14.473v24.529c0,6.755,3.827,12.626,9.422,15.579c-0.739,0.697-1.519,1.392-2.357,2.078
		c-15.503,12.702-23.698,28.126-23.698,44.604s8.195,31.903,23.7,44.606c3.534,2.895,9.461,8.631,9.461,14.535
		c0,5.902-5.929,11.641-9.463,14.536c-15.503,12.702-23.698,28.126-23.698,44.604c0,16.48,8.195,31.904,23.699,44.605
		c3.534,2.895,9.462,8.632,9.462,14.535s-5.929,11.642-9.463,14.538c-4.652,3.812-8.703,7.933-12.04,12.248
		c-2.533,3.277-1.931,7.987,1.346,10.521c1.366,1.056,2.98,1.566,4.582,1.566c2.243,0,4.461-1.001,5.939-2.912
		c2.645-3.422,5.902-6.727,9.679-9.821c9.785-8.017,14.957-17.056,14.957-26.141c0-9.086-5.172-18.124-14.957-26.139
		c-11.909-9.757-18.204-21.168-18.204-33.002c0-11.832,6.295-23.244,18.204-33.001c9.785-8.017,14.957-17.055,14.957-26.14
		c0-9.087-5.172-18.125-14.955-26.139c-11.91-9.758-18.206-21.17-18.206-33.003c0-11.832,6.295-23.244,18.204-33.001
		c4.508-3.693,8.025-7.601,10.527-11.648h79.163c-0.018,0.015-0.035,0.031-0.054,0.046c-15.503,12.701-23.698,28.125-23.698,44.604
		c0,16.479,8.195,31.902,23.7,44.606c3.534,2.894,9.461,8.63,9.461,14.534c0,5.902-5.929,11.641-9.463,14.536
		c-15.503,12.702-23.698,28.126-23.698,44.604c0,16.48,8.195,31.904,23.699,44.605c3.534,2.895,9.462,8.632,9.462,14.535
		s-5.929,11.642-9.463,14.538c-4.653,3.813-8.704,7.934-12.04,12.249c-2.533,3.276-1.931,7.987,1.346,10.521
		c1.366,1.056,2.98,1.566,4.582,1.566c2.243,0,4.461-1.001,5.939-2.913c2.645-3.421,5.901-6.725,9.679-9.82
		c9.785-8.017,14.957-17.056,14.957-26.141c0-9.086-5.172-18.124-14.957-26.139c-11.909-9.757-18.204-21.168-18.204-33.002
		c0-11.832,6.295-23.244,18.204-33.001c9.785-8.017,14.957-17.055,14.957-26.14c0-9.087-5.172-18.125-14.955-26.139
		c-11.91-9.758-18.206-21.17-18.206-33.002c0-11.833,6.295-23.244,18.205-33.001c4.503-3.689,8.034-7.601,10.538-11.649h31.012
		c-0.018,0.015-0.035,0.03-0.053,0.045c-15.503,12.702-23.698,28.126-23.698,44.604s8.195,31.903,23.7,44.606
		c3.533,2.895,9.46,8.631,9.46,14.535c0,5.903-5.929,11.642-9.462,14.536c-8.696,7.124-15.119,15.143-19.09,23.833
		c-1.721,3.768-0.063,8.218,3.705,9.938c1.011,0.462,2.07,0.681,3.113,0.681c2.845,0,5.566-1.628,6.826-4.385
		c3.011-6.591,8.042-12.803,14.952-18.464c9.784-8.016,14.956-17.055,14.956-26.14c0-9.087-5.172-18.126-14.955-26.139
		c-11.91-9.758-18.205-21.17-18.205-33.003c0-11.832,6.295-23.244,18.204-33.001c4.502-3.688,8.036-7.599,10.54-11.648h78.401
		c3.842,11.39,5.812,23.294,5.812,35.445v43.16c0,13.605-2.453,26.792-7.056,39.062c-6.076,0.025-18.672-1.23-32.936-10.233
		c-3.499-2.212-8.135-1.164-10.345,2.339c-2.211,3.502-1.164,8.134,2.339,10.345c13.26,8.371,25.468,11.307,34.192,12.199
		c-8.952,16.15-21.988,30.045-38.317,40.254c-13.084,8.182-20.896,22.179-20.896,37.442v43.606c0,4.143,3.357,7.5,7.5,7.5
		s7.5-3.357,7.5-7.5v-43.606c0-10.06,5.177-19.302,13.849-24.724c29.157-18.231,49.059-46.817,56.219-79.435
		c4.263,1.544,8.777,2.363,13.393,2.363c21.692,0,39.341-17.648,39.341-39.341S409.548,279.924,387.855,279.924z M288.921,129.951
		c-9.744,8.494-22.006,14.159-35.51,15.705V94.44L288.921,129.951z M202.901,129.95l35.51-35.51v51.215
		C224.907,144.11,212.644,138.445,202.901,129.95z M238.411,15.442v57.785l-45.636,45.635
		c-7.799-10.785-12.413-24.017-12.413-38.313C180.362,46.943,205.788,19.177,238.411,15.442z M301.64,158.263
		c-6.945,3.438-26.139,8.05-55.696,8.05s-48.751-4.611-55.696-8.05c3.141-1.567,9.308-3.732,20.057-5.487
		c10.744,5.318,22.828,8.322,35.605,8.322c12.784,0,24.874-3.007,35.622-8.33C292.314,154.524,298.494,156.694,301.64,158.263z
		 M375.944,232.775c0,1.44-1.172,2.612-2.612,2.612H118.557c-1.441,0-2.613-1.172-2.613-2.612v-24.529
		c0-1.44,1.172-2.612,2.613-2.612h254.774c1.44,0,2.612,1.172,2.612,2.612V232.775z M387.855,343.605
		c-3.863,0-7.611-0.914-11.004-2.638c0.371-3.953,0.562-7.947,0.562-11.974V297.27c3.241-1.542,6.793-2.346,10.441-2.346
		c13.422,0,24.341,10.919,24.341,24.341S401.277,343.605,387.855,343.605z"/>
	<path id="XMLID_433_" d="M342.625,287.424c0-4.143-3.357-7.5-7.5-7.5h-0.089c-4.143,0-7.456,3.357-7.456,7.5s3.402,7.5,7.545,7.5
		S342.625,291.566,342.625,287.424z"/>
	<path id="XMLID_434_" d="M267.661,446.321c-7.239-5.931-12.408-12.462-15.36-19.411c-1.621-3.813-6.023-5.593-9.836-3.97
		c-3.812,1.619-5.589,6.023-3.97,9.835c3.911,9.205,10.526,17.666,19.661,25.149c3.533,2.895,9.461,8.632,9.461,14.535
		c0,5.904-5.929,11.643-9.463,14.538c-4.651,3.812-8.702,7.932-12.04,12.248c-2.534,3.276-1.932,7.987,1.345,10.521
		c1.366,1.057,2.98,1.567,4.583,1.567c2.242,0,4.461-1.001,5.938-2.912c2.646-3.422,5.903-6.727,9.681-9.821
		c9.784-8.016,14.956-17.055,14.956-26.141S277.445,454.335,267.661,446.321z"/>
	<path id="XMLID_435_" d="M369.929,83.066c0.008,0,0.016,0,0.022,0c4.132,0,7.487-3.344,7.5-7.478l0.014-4.637
		c0.012-4.143-3.336-7.51-7.478-7.522c-0.008,0-0.016,0-0.022,0c-4.132,0-7.487,3.344-7.5,7.478l-0.014,4.637
		C362.44,79.687,365.788,83.054,369.929,83.066z"/>
	<path id="XMLID_436_" d="M369.899,94.04c-0.008,0-0.016,0-0.022,0c-4.132,0-7.487,3.344-7.5,7.478l-0.014,4.636
		c-0.012,4.143,3.336,7.51,7.478,7.522c0.008,0,0.016,0,0.022,0c4.132,0,7.487-3.344,7.5-7.478l0.014-4.636
		C377.388,97.42,374.041,94.053,369.899,94.04z"/>
	<path id="XMLID_437_" d="M382.879,96.091l4.637,0.014c0.008,0,0.016,0,0.022,0c4.132,0,7.487-3.344,7.5-7.478
		c0.012-4.143-3.336-7.51-7.478-7.522l-4.637-0.014c-0.008,0-0.016,0-0.022,0c-4.132,0-7.487,3.344-7.5,7.478
		C375.389,92.711,378.737,96.078,382.879,96.091z"/>
	<path id="XMLID_438_" d="M352.269,96.002l4.636,0.014c0.008,0,0.016,0,0.022,0c4.132,0,7.487-3.344,7.5-7.478
		c0.012-4.143-3.336-7.51-7.478-7.522l-4.636-0.014c-0.008,0-0.016,0-0.022,0c-4.132,0-7.487,3.344-7.5,7.478
		C344.78,92.622,348.128,95.989,352.269,96.002z"/>
	<path id="XMLID_439_" d="M125.038,23.798c0.007,0,0.015,0,0.022,0c4.132,0,7.488-3.344,7.5-7.479l0.013-4.637
		c0.012-4.143-3.336-7.51-7.479-7.521c-0.007,0-0.015,0-0.022,0c-4.132,0-7.488,3.344-7.5,7.479l-0.013,4.637
		C117.548,20.419,120.896,23.786,125.038,23.798z"/>
	<path id="XMLID_440_" d="M125.005,34.771c-0.007,0-0.015,0-0.022,0c-4.132,0-7.488,3.344-7.5,7.479l-0.013,4.637
		c-0.012,4.143,3.336,7.51,7.479,7.521c0.007,0,0.015,0,0.022,0c4.132,0,7.488-3.344,7.5-7.479l0.013-4.637
		C132.495,38.149,129.147,34.782,125.005,34.771z"/>
	<path id="XMLID_441_" d="M137.986,36.821l4.637,0.014c0.007,0,0.015,0,0.022,0c4.132,0,7.487-3.344,7.5-7.478
		c0.012-4.143-3.336-7.51-7.478-7.522l-4.637-0.014c-0.007,0-0.015,0-0.022,0c-4.132,0-7.487,3.344-7.5,7.478
		C130.496,33.441,133.844,36.809,137.986,36.821z"/>
	<path id="XMLID_442_" d="M107.376,36.732l4.637,0.014c0.007,0,0.015,0,0.022,0c4.132,0,7.487-3.344,7.5-7.478
		c0.012-4.143-3.336-7.51-7.478-7.522l-4.637-0.014c-0.007,0-0.015,0-0.022,0c-4.132,0-7.487,3.344-7.5,7.478
		C99.886,33.353,103.234,36.72,107.376,36.732z"/>
</g>
<g>
</g>
<g>
</g>
<g>
</g>
<g>
</g>
<g>
</g>
<g>
</g>
<g>
</g>
<g>
</g>
<g>
</g>
<g>
</g>
<g>
</g>
<g>
</g>
<g>
</g>
<g>
</g>
<g>
</g>
</svg>
